<svg xmlns="http://www.w3.org/2000/svg" viewBox="0 0 640 220" role="img" aria-labelledby="title desc">
  <title id="title">Lunari Ruby Logo</title>
  <desc id="desc">A smooth ruby-textured crescent moon beside the Lunari wordmark.</desc>
  <defs>
    <linearGradient id="ruby-main" x1="80" y1="24" x2="250" y2="212" gradientUnits="userSpaceOnUse">
      <stop offset="0" stop-color="#ff9aae"/>
      <stop offset="0.24" stop-color="#f23868"/>
      <stop offset="0.58" stop-color="#ad123f"/>
      <stop offset="1" stop-color="#560522"/>
    </linearGradient>
    <radialGradient id="ruby-glow" cx="0" cy="0" r="1" gradientUnits="userSpaceOnUse" gradientTransform="translate(122 72) rotate(58) scale(92 38)">
      <stop offset="0" stop-color="#ffe2e8" stop-opacity="0.75"/>
      <stop offset="0.55" stop-color="#ff6f8d" stop-opacity="0.28"/>
      <stop offset="1" stop-color="#ff6f8d" stop-opacity="0"/>
    </radialGradient>
    <linearGradient id="ruby-edge" x1="96" y1="26" x2="244" y2="202" gradientUnits="userSpaceOnUse">
      <stop offset="0" stop-color="#ffd2dc"/>
      <stop offset="0.5" stop-color="#ff87a0"/>
      <stop offset="1" stop-color="#7d082f"/>
    </linearGradient>
    <clipPath id="crescent-clip">
      <path d="M160 20c-39 18-64 58-62 103 3 54 48 96 102 93 23-1 44-10 61-25-14 5-29 7-45 6-61-4-108-55-104-117 2-35 20-64 48-80Z"/>
    </clipPath>
    <filter id="soft-shadow" x="-20%" y="-20%" width="140%" height="140%">
      <feDropShadow dx="0" dy="10" stdDeviation="12" flood-color="#300516" flood-opacity="0.38"/>
    </filter>
  </defs>

  <rect width="640" height="220" rx="24" fill="#16171b"/>

  <g filter="url(#soft-shadow)">
    <path d="M160 20c-39 18-64 58-62 103 3 54 48 96 102 93 23-1 44-10 61-25-14 5-29 7-45 6-61-4-108-55-104-117 2-35 20-64 48-80Z" fill="url(#ruby-main)"/>
    <g clip-path="url(#crescent-clip)">
      <path d="M84 12h188v224H84Z" fill="url(#ruby-glow)"/>
      <path d="M103 123c33 8 63 41 76 98" fill="none" stroke="#4d061f" stroke-opacity="0.28" stroke-width="16"/>
      <path d="M112 83c18 52 63 91 132 106" fill="none" stroke="#ff7f9a" stroke-opacity="0.18" stroke-width="10"/>
      <path d="M101 119c26 18 57 30 92 34" fill="none" stroke="#ffd0da" stroke-opacity="0.18" stroke-width="3"/>
    </g>
    <path d="M160 20c-39 18-64 58-62 103 3 54 48 96 102 93 23-1 44-10 61-25-14 5-29 7-45 6-61-4-108-55-104-117 2-35 20-64 48-80Z" fill="none" stroke="url(#ruby-edge)" stroke-opacity="0.75" stroke-width="3"/>
  </g>

  <text x="270" y="101" fill="#fff4f7" font-family="Segoe UI, Arial, sans-serif" font-size="58" font-weight="700" letter-spacing="0">Lunari</text>
  <text x="274" y="144" fill="#ffccd6" font-family="Consolas, 'Courier New', monospace" font-size="24">Typed Ruby for Godot</text>
  <path d="M274 164h286" stroke="#d8244f" stroke-width="5" stroke-linecap="round"/>
  <text x="274" y="193" fill="#ffd56a" font-family="Consolas, 'Courier New', monospace" font-size="16">def ready: void / @export / await signal</text>
</svg>
