<svg xmlns="http://www.w3.org/2000/svg" viewBox="0 0 920 260" role="img" aria-labelledby="title desc">
  <title id="title">Lunari</title>
  <desc id="desc">Lunari typed Ruby scripting language logo.</desc>
  <defs>
    <linearGradient id="ruby" x1="62" y1="34" x2="307" y2="238" gradientUnits="userSpaceOnUse">
      <stop offset="0" stop-color="#ff8fac"/>
      <stop offset="0.35" stop-color="#e52958"/>
      <stop offset="0.72" stop-color="#a70d38"/>
      <stop offset="1" stop-color="#5a061d"/>
    </linearGradient>
    <linearGradient id="rim" x1="72" y1="26" x2="284" y2="224" gradientUnits="userSpaceOnUse">
      <stop offset="0" stop-color="#ffd5df"/>
      <stop offset="0.48" stop-color="#ff6f8e"/>
      <stop offset="1" stop-color="#7d092b"/>
    </linearGradient>
    <clipPath id="mark-clip">
      <path fill-rule="evenodd" d="M166 24C100 46 54 108 54 180c0 47 24 86 61 106 55 31 129 14 177-43-38 22-86 23-124 1-45-26-65-82-47-133 11-31 35-59 66-78 13-8 7-18-21-9Zm28 33c-23 15-41 36-49 60-13 37 1 78 34 99 27 17 61 18 91 3-37 35-88 44-126 22-32-18-49-53-42-91 7-43 42-82 92-93Z"/>
    </clipPath>
    <filter id="shadow" x="-30%" y="-30%" width="160%" height="160%">
      <feDropShadow dx="0" dy="10" stdDeviation="10" flood-color="#300414" flood-opacity="0.38"/>
    </filter>
  </defs>

  <g filter="url(#shadow)">
    <path fill-rule="evenodd" d="M166 24C100 46 54 108 54 180c0 47 24 86 61 106 55 31 129 14 177-43-38 22-86 23-124 1-45-26-65-82-47-133 11-31 35-59 66-78 13-8 7-18-21-9Zm28 33c-23 15-41 36-49 60-13 37 1 78 34 99 27 17 61 18 91 3-37 35-88 44-126 22-32-18-49-53-42-91 7-43 42-82 92-93Z" fill="url(#ruby)"/>
    <g clip-path="url(#mark-clip)">
      <path d="M79 184 139 148 180 219 115 246Z" fill="#f73a66" opacity="0.42"/>
      <path d="M139 148 205 92 180 219Z" fill="#c91546" opacity="0.35"/>
      <path d="M205 92 302 228 180 219Z" fill="#780826" opacity="0.28"/>
      <path d="M88 137 139 148 79 184Z" fill="#ff7896" opacity="0.26"/>
      <path d="M114 248 180 219 242 247Z" fill="#4e0519" opacity="0.22"/>
      <path d="M77 181 139 148 205 92" fill="none" stroke="#ffd2dc" stroke-width="3" stroke-opacity="0.22"/>
      <path d="M139 148 180 219 302 228" fill="none" stroke="#2c0310" stroke-width="4" stroke-opacity="0.2"/>
    </g>
    <path fill-rule="evenodd" d="M166 24C100 46 54 108 54 180c0 47 24 86 61 106 55 31 129 14 177-43-38 22-86 23-124 1-45-26-65-82-47-133 11-31 35-59 66-78 13-8 7-18-21-9Zm28 33c-23 15-41 36-49 60-13 37 1 78 34 99 27 17 61 18 91 3-37 35-88 44-126 22-32-18-49-53-42-91 7-43 42-82 92-93Z" fill="none" stroke="url(#rim)" stroke-width="4"/>
  </g>

  <text x="350" y="126" fill="#f7edf1" font-family="Segoe UI, Arial, sans-serif" font-size="82" font-weight="750" letter-spacing="0">Lunari</text>
  <text x="356" y="171" fill="#ffbfce" font-family="Segoe UI, Arial, sans-serif" font-size="30" letter-spacing="0">Typed Ruby for Godot</text>
</svg>
