<svg xmlns="http://www.w3.org/2000/svg" viewBox="0 0 640 220" role="img" aria-labelledby="title desc">
  <title id="title">Lunari Ruby Logo</title>
  <desc id="desc">A ruby-textured crescent moon beside the Lunari wordmark.</desc>
  <defs>
    <linearGradient id="ruby-main" x1="78" y1="28" x2="235" y2="206" gradientUnits="userSpaceOnUse">
      <stop offset="0" stop-color="#ff96a4"/>
      <stop offset="0.28" stop-color="#ef315f"/>
      <stop offset="0.66" stop-color="#a80f3c"/>
      <stop offset="1" stop-color="#5a0624"/>
    </linearGradient>
    <linearGradient id="ruby-glow" x1="92" y1="42" x2="158" y2="118" gradientUnits="userSpaceOnUse">
      <stop offset="0" stop-color="#ffe3e8" stop-opacity="0.75"/>
      <stop offset="1" stop-color="#ff4f73" stop-opacity="0.08"/>
    </linearGradient>
    <clipPath id="crescent-clip">
      <path d="M169 30c-42 12-72 48-76 92-5 52 34 98 86 103 28 3 55-7 75-25-12 3-24 4-36 3-62-6-107-61-101-123 3-31 18-59 42-78 4-3 7-4 10-2Z"/>
    </clipPath>
    <filter id="soft-shadow" x="-20%" y="-20%" width="140%" height="140%">
      <feDropShadow dx="0" dy="10" stdDeviation="12" flood-color="#300516" flood-opacity="0.38"/>
    </filter>
  </defs>

  <rect width="640" height="220" rx="24" fill="#16171b"/>

  <g filter="url(#soft-shadow)">
    <path d="M169 30c-42 12-72 48-76 92-5 52 34 98 86 103 28 3 55-7 75-25-12 3-24 4-36 3-62-6-107-61-101-123 3-31 18-59 42-78 4-3 7-4 10-2Z" fill="url(#ruby-main)"/>
    <g clip-path="url(#crescent-clip)">
      <path d="M103 57 156 92 106 128Z" fill="url(#ruby-glow)"/>
      <path d="M106 128 162 154 128 220Z" fill="#7d0a31" opacity="0.66"/>
      <path d="M162 154 211 136 258 198Z" fill="#b81946" opacity="0.72"/>
      <path d="M117 84 156 92 162 154 106 128Z" fill="#f44770" opacity="0.42"/>
      <path d="M95 125 106 128 128 220 78 172Z" fill="#9b123c" opacity="0.54"/>
      <path d="M106 128 156 92 211 136 162 154 106 128 128 220" fill="none" stroke="#ffd0d8" stroke-opacity="0.22" stroke-width="2"/>
      <path d="M96 125 106 128 162 154 258 198" fill="none" stroke="#4c061f" stroke-opacity="0.3" stroke-width="2"/>
      <path d="M103 57 156 92" fill="none" stroke="#ffe5ea" stroke-opacity="0.28" stroke-width="2"/>
    </g>
    <path d="M169 30c-42 12-72 48-76 92-5 52 34 98 86 103 28 3 55-7 75-25-12 3-24 4-36 3-62-6-107-61-101-123 3-31 18-59 42-78 4-3 7-4 10-2Z" fill="none" stroke="#ff9faf" stroke-opacity="0.55" stroke-width="3"/>
  </g>

  <text x="270" y="101" fill="#fff4f7" font-family="Segoe UI, Arial, sans-serif" font-size="58" font-weight="700" letter-spacing="0">Lunari</text>
  <text x="274" y="144" fill="#ffccd6" font-family="Consolas, 'Courier New', monospace" font-size="24">Typed Ruby for Godot</text>
  <path d="M274 164h286" stroke="#d8244f" stroke-width="5" stroke-linecap="round"/>
  <text x="274" y="193" fill="#ffd56a" font-family="Consolas, 'Courier New', monospace" font-size="16">def ready: void / @export / await signal</text>
</svg>
